<mxfile host="app.diagrams.net" modified="2024-06-04T08:02:04.634Z" agent="Mozilla/5.0 (Macintosh; Intel Mac OS X 10_15_7) AppleWebKit/537.36 (KHTML, like Gecko) Chrome/125.0.0.0 Safari/537.36" etag="olh4Qk3AR7KpfMGgC0uN" version="24.4.13" type="github">
  <diagram name="Page-1" id="OmKhrQcvZUztX2mufycv">
    <mxGraphModel dx="1022" dy="768" grid="1" gridSize="10" guides="1" tooltips="1" connect="1" arrows="1" fold="1" page="1" pageScale="1" pageWidth="827" pageHeight="1169" math="0" shadow="0">
      <root>
        <mxCell id="0" />
        <mxCell id="1" parent="0" />
        <mxCell id="UJKn7ZbilQDtlEIyPeok-1" value="Har du Monterey OS" style="rhombus;whiteSpace=wrap;html=1;" vertex="1" parent="1">
          <mxGeometry x="380" y="70" width="210" height="120" as="geometry" />
        </mxCell>
        <mxCell id="UJKn7ZbilQDtlEIyPeok-3" value="GjÃ¸re Mac klar for innlevering" style="ellipse;whiteSpace=wrap;html=1;" vertex="1" parent="1">
          <mxGeometry x="190" y="100" width="120" height="80" as="geometry" />
        </mxCell>
      </root>
    </mxGraphModel>
  </diagram>
</mxfile>
